<?xml version="1.0" standalone="no"?>
<!DOCTYPE svg PUBLIC "-//W3C//DTD SVG 20010904//EN"
 "http://www.w3.org/TR/2001/REC-SVG-20010904/DTD/svg10.dtd">
<svg version="1.0" xmlns="http://www.w3.org/2000/svg"
 width="1024.000000pt" height="1024.000000pt" viewBox="0 0 1024.000000 1024.000000"
 preserveAspectRatio="xMidYMid meet">
<metadata>
Created by potrace 1.14, written by Peter Selinger 2001-2017
</metadata>
<g transform="translate(0.000000,1024.000000) scale(0.100000,-0.100000)"
fill="#000000" stroke="none">
<path d="M4339 9146 c-2 -2 -58 -6 -124 -10 -66 -3 -133 -8 -150 -10 -16 -2
-59 -7 -95 -11 -240 -24 -663 -114 -895 -190 -363 -119 -585 -215 -1030 -447
-132 -69 -343 -178 -470 -243 -265 -136 -278 -144 -295 -184 -15 -38 2 -95 35
-117 39 -26 170 -44 370 -51 l189 -6 -49 -41 c-218 -180 -509 -504 -678 -754
-54 -78 -97 -146 -97 -151 0 -5 -8 -19 -18 -32 -43 -55 -199 -360 -256 -499
-101 -246 -213 -440 -352 -610 -36 -45 -72 -97 -80 -116 -14 -32 -13 -39 3
-72 10 -20 29 -43 43 -50 32 -17 114 -9 198 19 35 12 66 19 69 16 3 -3 -9 -90
-26 -194 -47 -290 -56 -495 -36 -894 4 -94 2 -113 -17 -160 -49 -121 -174
-291 -329 -450 -45 -46 -85 -93 -90 -105 -12 -33 0 -95 27 -131 34 -45 156
-117 251 -149 l82 -27 -5 -112 c-20 -376 116 -700 378 -901 147 -114 378 -186
544 -171 l63 6 52 -92 c151 -264 302 -459 535 -689 167 -165 390 -329 638
-472 574 -331 1240 -521 1953 -556 913 -46 1878 215 2601 701 407 274 756 655
938 1022 l37 74 116 6 c175 8 306 52 430 146 329 247 462 621 385 1083 -8 49
-17 95 -20 103 -5 12 7 14 70 13 85 -2 119 14 145 68 28 57 24 73 -142 504
-41 107 -105 272 -141 365 -36 94 -76 198 -90 233 l-25 62 27 -6 c15 -4 35
-11 44 -16 36 -18 175 -48 225 -48 41 0 58 5 82 25 46 40 53 74 41 211 -36
416 -163 808 -374 1158 -100 166 -181 273 -288 382 l-89 91 31 46 c110 164
164 401 140 620 -38 340 -207 638 -479 842 -185 140 -315 182 -368 121 -38
-45 -31 -80 50 -238 91 -180 137 -356 137 -530 l0 -51 -41 59 c-232 331 -685
727 -1114 974 -161 93 -442 231 -580 285 -66 26 -129 51 -140 55 -130 56 -466
152 -680 194 -289 56 -450 78 -715 96 -138 9 -542 14 -551 6z m844 -260 c829
-117 1494 -382 2102 -837 440 -329 798 -765 836 -1019 12 -83 29 -110 69 -110
64 0 116 80 154 239 51 208 58 417 22 605 -9 44 -14 81 -12 84 10 9 112 -151
156 -243 62 -130 80 -203 87 -355 4 -106 2 -138 -16 -208 -27 -108 -77 -202
-151 -286 -35 -39 -60 -76 -60 -89 0 -31 22 -58 146 -182 327 -326 565 -793
637 -1255 21 -132 28 -190 21 -190 -3 0 -73 31 -157 69 -274 124 -294 130
-333 105 -22 -15 -24 -21 -18 -58 10 -59 83 -268 264 -756 154 -417 192 -522
187 -526 -2 -3 -48 17 -101 42 l-97 47 -24 -24 c-13 -13 -60 -96 -104 -184
-129 -256 -259 -441 -437 -619 -87 -86 -213 -190 -221 -182 -3 2 4 21 15 43
71 138 117 386 108 569 -15 277 -80 527 -255 979 -43 110 -91 236 -106 280
-68 199 -75 213 -95 208 -21 -6 -35 -65 -26 -110 3 -16 8 -48 10 -73 12 -123
70 -402 117 -552 17 -55 28 -102 26 -104 -6 -6 -146 157 -223 261 -251 333
-425 680 -599 1187 -239 699 -290 869 -365 1228 -17 79 -37 154 -45 167 -36
55 -74 15 -116 -119 -190 -620 -260 -810 -421 -1136 -155 -315 -327 -561 -543
-778 -307 -308 -644 -493 -1140 -625 -90 -24 -155 -46 -162 -56 -15 -20 -17
-67 -3 -93 24 -46 124 -48 320 -9 400 81 813 308 1115 614 402 407 688 945
851 1607 35 143 54 191 54 139 0 -21 85 -386 126 -540 225 -855 501 -1416 943
-1921 l101 -115 -1008 -5 c-917 -5 -1010 -6 -1038 -22 -58 -32 -74 -124 -30
-175 22 -26 32 -28 108 -33 l83 -5 -4 -210 c-4 -227 5 -315 44 -446 74 -248
261 -457 517 -578 172 -83 328 -111 508 -92 130 14 200 31 303 76 116 50 183
92 264 169 240 226 326 478 309 907 l-7 166 38 6 c21 4 41 3 44 -1 4 -4 28
-49 54 -101 l48 -95 -6 -115 c-11 -205 -85 -433 -207 -636 -58 -95 -66 -125
-50 -165 16 -38 49 -47 109 -31 47 13 194 83 263 127 22 14 41 24 43 22 6 -7
-37 -154 -72 -241 -159 -401 -483 -796 -896 -1089 -663 -472 -1563 -741 -2412
-721 -530 12 -1017 106 -1487 287 -109 42 -386 173 -483 228 -278 159 -471
304 -670 503 -171 171 -245 259 -358 430 -73 110 -217 385 -217 413 0 9 9 8
32 -4 36 -19 91 -14 119 12 32 29 32 67 0 193 -90 357 -70 670 64 1009 111
278 363 715 576 996 41 54 83 110 93 125 64 86 262 294 356 373 41 35 71 50
120 63 291 75 526 186 695 330 63 53 83 88 65 110 -19 22 -37 19 -141 -26
-299 -130 -668 -223 -1052 -266 -174 -19 -621 -25 -649 -8 -15 9 -9 17 44 55
52 38 193 173 263 252 53 60 95 146 68 141 -17 -4 -140 -79 -183 -113 -66 -51
-300 -190 -419 -250 -128 -64 -161 -94 -161 -145 0 -69 51 -101 217 -134 193
-39 444 -50 692 -30 73 6 136 8 139 4 3 -3 -26 -38 -64 -78 -161 -164 -393
-489 -571 -798 -282 -488 -407 -841 -420 -1184 -4 -122 12 -297 32 -347 16
-39 -16 -13 -103 85 -165 185 -271 345 -403 605 -72 143 -97 184 -115 188 -14
4 -55 -7 -106 -27 -129 -51 -264 -46 -365 14 l-34 20 75 74 c130 127 216 256
282 419 20 49 41 92 48 96 8 5 10 49 6 150 -10 326 -4 670 14 793 28 192 81
425 116 506 61 140 64 152 44 166 -30 22 -48 16 -158 -52 -58 -35 -106 -60
-106 -55 0 5 5 12 11 15 16 10 93 134 132 212 19 37 69 147 112 243 209 477
426 805 750 1138 217 223 405 379 678 561 75 50 137 98 137 106 0 8 -10 21
-23 29 -25 17 -16 18 -332 -24 -121 -15 -249 -31 -285 -35 -36 -3 -83 -8 -105
-11 -31 -4 12 22 190 116 278 147 575 296 670 337 196 84 253 106 410 158 299
99 531 153 830 194 241 34 359 39 740 37 327 -3 377 -6 548 -30z m3776 -5335
c38 -176 38 -397 1 -529 -62 -223 -213 -396 -415 -477 -69 -27 -195 -46 -195
-29 0 5 12 43 26 84 13 41 37 138 53 215 l28 141 73 73 c137 141 269 320 366
498 21 40 42 73 46 73 3 0 11 -22 17 -49z m-8095 -138 c75 -152 190 -338 275
-443 20 -25 72 -82 115 -128 80 -83 80 -83 121 -209 l41 -126 -75 6 c-268 19
-512 236 -586 521 -23 92 -38 267 -30 360 l7 84 36 15 c20 8 39 15 42 16 3 1
27 -43 54 -96z m5684 77 c3 -8 13 -23 68 -98 16 -21 16 -29 0 -124 -16 -94
-16 -102 0 -119 38 -42 77 -12 89 65 13 96 30 110 98 81 47 -19 114 -19 172 1
56 18 75 13 98 -26 25 -42 53 -55 83 -40 36 20 37 40 4 92 -36 58 -36 58 -10
105 11 21 20 43 20 50 0 6 4 13 10 15 14 4 420 -11 448 -17 20 -5 22 -11 22
-63 -1 -147 -38 -292 -102 -400 -18 -31 -68 -91 -111 -133 -100 -100 -233
-169 -372 -195 -273 -50 -536 37 -723 241 -104 113 -161 250 -177 427 -8 82 1
161 14 139 6 -9 24 -11 67 -6 194 23 295 25 302 5z"/>
<path d="M4520 6232 c-14 -9 -120 -111 -235 -226 -244 -242 -505 -481 -725
-661 -202 -165 -236 -209 -192 -248 39 -35 84 -17 257 101 338 231 681 568
875 861 51 77 94 167 85 181 -9 15 -37 12 -65 -8z"/>
<path d="M3137 5019 c-154 -10 -265 -27 -300 -46 -15 -7 -35 -30 -44 -49 -25
-51 -3 -110 50 -137 37 -19 42 -19 275 -3 130 9 332 20 449 25 238 10 269 18
286 78 14 48 1 80 -45 110 l-41 28 -256 1 c-141 1 -309 -2 -374 -7z"/>
<path d="M6115 5020 c-85 -15 -126 -83 -94 -154 21 -46 57 -53 292 -60 119 -3
310 -13 423 -21 113 -8 217 -12 232 -9 75 18 110 63 98 127 -12 63 -50 82
-206 103 -125 17 -671 27 -745 14z"/>
<path d="M2817 4505 c-160 -31 -263 -78 -355 -163 -46 -43 -51 -52 -44 -73 15
-39 55 -37 105 6 50 43 161 100 237 121 80 22 273 29 366 14 169 -27 316 -111
383 -220 33 -53 65 -66 91 -35 17 21 7 52 -39 116 -71 100 -197 179 -347 219
-105 28 -291 35 -397 15z"/>
<path d="M6743 4505 c-193 -35 -339 -116 -429 -237 -48 -65 -54 -96 -25 -122
25 -23 40 -14 81 46 148 217 523 291 852 168 50 -19 81 -38 158 -100 32 -25
68 -17 77 18 5 22 -1 32 -38 64 -105 92 -213 139 -377 163 -116 18 -202 18
-299 0z"/>
<path d="M2035 3993 c-95 -21 -142 -93 -111 -168 16 -36 62 -65 106 -65 19 0
21 -4 16 -57 -22 -236 -13 -419 25 -573 62 -247 258 -481 502 -600 388 -188
863 -103 1159 209 134 140 200 265 244 459 18 80 24 289 14 477 l-5 90 82 5
c93 6 116 20 134 80 17 55 -8 105 -63 130 -42 19 -73 20 -1063 19 -561 -1
-1029 -3 -1040 -6z m1637 -506 c42 -1 74 -5 71 -9 -2 -5 3 -8 11 -8 36 0 7
-241 -43 -361 -63 -151 -185 -278 -336 -354 -117 -58 -184 -75 -326 -82 -241
-12 -425 60 -592 231 -120 123 -186 292 -187 477 l0 85 173 13 c94 7 192 14
217 17 l45 5 33 -63 c18 -35 32 -67 32 -71 0 -4 -11 -25 -25 -45 -30 -45 -32
-73 -4 -90 24 -15 36 -9 84 46 l30 34 62 -16 c73 -19 112 -20 178 -2 28 8 53
12 56 10 4 -2 13 -33 20 -70 17 -86 28 -102 66 -89 23 9 29 17 31 50 3 33 -5
84 -24 146 -2 9 10 34 28 57 18 22 40 53 50 70 20 37 34 39 168 29 58 -5 139
-10 182 -10z"/>
<path d="M3329 3426 c-9 -20 -9 -29 1 -41 27 -33 75 -7 68 37 -5 35 -54 38
-69 4z"/>
<path d="M3451 2473 c-78 -51 -197 -108 -259 -124 -29 -7 -58 -19 -64 -26 -15
-19 -1 -60 23 -66 71 -19 409 147 409 201 -1 53 -42 59 -109 15z"/>
<path d="M6377 2497 c-15 -11 -21 -29 -18 -53 0 -6 29 -29 64 -51 212 -137
398 -176 373 -79 -5 20 -16 26 -55 35 -64 14 -214 78 -271 117 -58 40 -75 45
-93 31z"/>
<path d="M2445 2476 c-23 -34 -11 -51 69 -99 185 -111 296 -135 296 -62 0 19
-13 28 -82 56 -46 18 -119 54 -164 81 -44 26 -86 48 -92 48 -6 0 -18 -11 -27
-24z"/>
<path d="M7345 2457 c-38 -24 -99 -55 -135 -70 -85 -37 -92 -40 -104 -60 -8
-13 -6 -22 11 -39 20 -20 25 -21 65 -9 96 29 279 134 292 167 8 20 -20 54 -43
54 -9 0 -47 -20 -86 -43z"/>
<path d="M4845 2022 c-97 -41 -195 -140 -195 -198 0 -42 19 -75 52 -88 39 -17
61 -10 125 39 52 40 109 59 150 49 15 -3 58 -27 96 -52 80 -54 118 -59 154
-18 27 32 30 83 8 125 -23 46 -112 118 -171 140 -67 26 -163 27 -219 3z"/>
<path d="M6504 3439 c-14 -15 -16 -24 -8 -37 15 -23 48 -27 64 -8 10 13 9 20
-4 41 -20 30 -27 31 -52 4z"/>
</g>
</svg>
